<svg width="81" height="67" viewBox="0 0 81 67" fill="none" xmlns="http://www.w3.org/2000/svg">
<path fill-rule="evenodd" clip-rule="evenodd" d="M70.192 31.2349L0.999998 31.2349L0.999999 36.2349L70.192 36.2349L43.9624 62.4645L47.4979 66L77.9953 35.5026L79.763 33.7349L77.9953 31.9671L47.4979 1.46972L43.9624 5.00525L70.192 31.2349Z" fill="#FFF3FC"/>
<path d="M0.999998 31.2349L0.999998 30.7349L0.499998 30.7349L0.499998 31.2349L0.999998 31.2349ZM70.192 31.2349L70.192 31.7349L71.3991 31.7349L70.5455 30.8813L70.192 31.2349ZM0.999999 36.2349L0.499999 36.2349L0.499999 36.7349L0.999999 36.7349L0.999999 36.2349ZM70.192 36.2349L70.5455 36.5884L71.3991 35.7349L70.192 35.7349L70.192 36.2349ZM43.9624 62.4645L43.6088 62.1109L43.2553 62.4645L43.6088 62.818L43.9624 62.4645ZM47.4979 66L47.1443 66.3536L47.4979 66.7071L47.8514 66.3536L47.4979 66ZM77.9953 35.5026L77.6417 35.1491L77.9953 35.5026ZM79.763 33.7349L80.1166 34.0884L80.4701 33.7349L80.1166 33.3813L79.763 33.7349ZM77.9953 31.9671L77.6417 32.3206L77.9953 31.9671ZM47.4979 1.46972L47.8514 1.11616L47.4979 0.762609L47.1443 1.11616L47.4979 1.46972ZM43.9624 5.00525L43.6088 4.6517L43.2553 5.00525L43.6088 5.3588L43.9624 5.00525ZM0.999999 31.7349L70.192 31.7349L70.192 30.7349L0.999998 30.7349L0.999999 31.7349ZM1.5 36.2349L1.5 31.2349L0.499998 31.2349L0.499999 36.2349L1.5 36.2349ZM70.192 35.7349L0.999999 35.7349L0.999999 36.7349L70.192 36.7349L70.192 35.7349ZM44.3159 62.818L70.5455 36.5884L69.8384 35.8813L43.6088 62.1109L44.3159 62.818ZM47.8514 65.6464L44.3159 62.1109L43.6088 62.818L47.1443 66.3536L47.8514 65.6464ZM77.6417 35.1491L47.1443 65.6464L47.8514 66.3536L78.3488 35.8562L77.6417 35.1491ZM79.4095 33.3813L77.6417 35.1491L78.3488 35.8562L80.1166 34.0884L79.4095 33.3813ZM77.6417 32.3206L79.4095 34.0884L80.1166 33.3813L78.3488 31.6135L77.6417 32.3206ZM47.1443 1.82327L77.6417 32.3206L78.3488 31.6135L47.8514 1.11616L47.1443 1.82327ZM44.3159 5.3588L47.8514 1.82327L47.1443 1.11616L43.6088 4.6517L44.3159 5.3588ZM70.5455 30.8813L44.3159 4.6517L43.6088 5.3588L69.8384 31.5884L70.5455 30.8813Z" fill="#FFF3FC"/>
</svg>
